<?xml version="1.0" encoding="utf-8"?>
<!-- Generator: Adobe Illustrator 16.0.0, SVG Export Plug-In . SVG Version: 6.00 Build 0)  -->
<!DOCTYPE svg PUBLIC "-//W3C//DTD SVG 1.1//EN" "http://www.w3.org/Graphics/SVG/1.1/DTD/svg11.dtd">
<svg version="1.1" id="Layer_1" xmlns="http://www.w3.org/2000/svg" xmlns:xlink="http://www.w3.org/1999/xlink" x="0px" y="0px"
	 width="256.197px" height="292.022px" viewBox="0 0 256.197 292.022" enable-background="new 0 0 256.197 292.022"
	 xml:space="preserve">
<g>
	<path fill="#4D4D4E" d="M26.694,147.204c-2.885,2.709-4.721,5.48-5.239,8.35c-0.893,4.958,2.167,10.201,8.331,15.693
		c6.498,5.793,16.376,11.89,26.893,18.356c11.141,6.849,22.878,14.095,31.976,21.821c3.766,3.2,7.071,6.447,9.792,9.812
		c2.499-5.079,3.47-9.933,2.624-14.642c-1.329-7.438-7.11-14.481-15.682-21.089c-8.1-6.24-18.641-12.131-28.697-17.732
		c-9.551-5.316-18.567-10.353-24.539-15.163C29.863,150.766,28.019,148.977,26.694,147.204"/>
	<path fill="#4D4D4E" d="M37.55,79.17c-1.734,1.103-2.787,2.218-2.994,3.36c-0.351,1.945,1.754,3.964,5.727,6.034
		c4.104,2.14,10.146,4.347,16.438,6.635c6.51,2.366,13.203,4.806,18.208,7.344c2.035,1.033,3.785,2.066,5.185,3.126
		c1.61-1.606,2.37-3.165,2.093-4.705c-0.444-2.483-3.54-4.892-8.385-7.208c-4.689-2.241-10.973-4.401-17.097-6.498
		c-5.929-2.031-11.64-3.992-15.526-5.902C39.69,80.616,38.458,79.895,37.55,79.17"/>
	<path fill="#8CC540" d="M76.929,85.605c-0.971,0.842-2.238,1.622-3.828,2.448c-4.089,2.121-10.111,4.307-16.38,6.576
		c-6.482,2.346-13.148,4.791-18.134,7.305c-5.169,2.608-8.463,5.305-8.966,8.112c-0.156,0.87-1.98,11.129-1.98,11.129
		s2.904-4.709,4.144-5.766c1.208-1.029,3.368-2.385,5.54-3.551c5.348-2.873,12.478-5.656,19.393-8.323
		c6.67-2.573,13.066-5.048,17.397-7.445c4.183-2.315,6.412-4.549,6.022-6.716c-0.117-0.659-0.99-5.551-1.306-7.274
		C79.15,83.832,77.896,84.771,76.929,85.605"/>
	<path fill="#BADA8D" d="M31.773,115.375c-2.331,1.867-3.785,3.769-4.136,5.726c-0.608,3.36,2.031,6.884,7.176,10.537
		c5.372,3.816,13.417,7.792,21.884,11.963c8.872,4.366,18.106,8.93,25.139,13.737c2.884,1.969,5.391,3.96,7.426,6.011
		c2.093-3.103,3.001-6.089,2.479-9.009c-0.838-4.662-5.25-9.133-11.971-13.374c-6.42-4.054-14.895-7.921-23.065-11.636
		c-7.832-3.559-15.292-6.962-20.298-10.236C34.479,117.831,32.911,116.599,31.773,115.375"/>
	<path fill="#8CC540" d="M89.293,163.529c-1.446,2.198-3.388,4.256-5.867,6.443c-6.467,5.722-16.294,11.745-26.749,18.126
		c-11.071,6.759-22.742,13.975-31.777,21.596c-9.621,8.111-16.158,16.742-17.822,25.996C6.556,238.61,0,275.373,0,275.373
		s7.02-17.397,9.655-21.183c2.534-3.629,6.888-8.357,11.164-12.368c10.295-9.66,23.451-18.734,35.847-27.174
		c11.628-7.921,22.488-15.347,29.575-22.359c6.685-6.615,9.983-12.849,8.922-18.766c-0.315-1.77-2.6-14.591-3.399-18.968
		C92.568,158.948,90.712,161.361,89.293,163.529"/>
	<path fill="#191919" d="M80.121,105.716c-1.107,1.13-2.553,2.179-4.377,3.294c-4.713,2.873-11.71,5.851-19.034,8.954
		c-7.617,3.231-15.499,6.615-21.444,10.12c-6.206,3.66-10.217,7.469-10.938,11.46c-0.222,1.239-2.869,16.118-2.869,16.118
		s3.711-6.876,5.251-8.408c1.489-1.484,4.128-3.441,6.771-5.118c6.467-4.105,15-8.054,23.225-11.807
		c7.878-3.602,15.385-7.044,20.422-10.357c4.833-3.181,7.363-6.229,6.833-9.176c-0.16-0.889-1.33-7.461-1.75-9.761
		C82.635,103.342,81.212,104.597,80.121,105.716"/>
	<path fill="#FAED23" d="M36.026,61.648c7.036-2.265,14.201-3.391,21.369-3.399c7.535,0,15.074,1.239,22.461,3.746
		c1.641-7.684,3.29-15.362,4.931-23.046c-8.927-3.945-18.161-5.905-27.392-5.897c-8.891,0.004-17.783,1.832-26.397,5.488
		l-0.994,0.409c1.641,7.684,3.286,15.366,4.931,23.046C35.293,61.871,35.66,61.765,36.026,61.648"/>
	<path fill="#2F3030" d="M82.335,67.02c-8.174-3.099-16.56-4.646-24.94-4.646c-8.385,0-16.77,1.547-24.944,4.646
		c-1.766,0.674-3.523,1.388-5.266,2.203c0.729,3.231,1.458,6.459,2.191,9.69c9.168-3.586,18.598-5.391,28.023-5.391
		c9.422,0,18.84,1.805,28.012,5.387c0.733-3.224,1.466-6.455,2.195-9.687C85.863,68.408,84.101,67.694,82.335,67.02"/>
	<path fill="#2F3030" d="M85.575,22.278c-9.235-3.196-18.707-4.795-28.18-4.795c-9.472,0-18.944,1.599-28.179,4.795
		c-1.996,0.694-3.988,1.435-5.956,2.276c0.822,3.333,1.649,6.662,2.475,9.999C36.1,30.854,46.75,28.99,57.399,28.99
		c10.646,0,21.288,1.859,31.653,5.559c0.826-3.329,1.653-6.662,2.475-9.995C89.559,23.712,87.57,22.972,85.575,22.278"/>
	<polyline fill="#2F3030" points="27.898,23.817 57.395,0 86.888,23.817 27.898,23.817 	"/>
</g>
<text transform="matrix(1 0 0 1 57.1782 273.7222)" font-family="'HelveticaNeue-Light'" font-size="60">Beacon</text>
</svg>
